<?xml version="1.0" encoding="iso-8859-1"?>
<!-- Generator: Adobe Illustrator 19.0.0, SVG Export Plug-In . SVG Version: 6.00 Build 0)  -->
<svg version="1.1" id="Capa_1" xmlns="http://www.w3.org/2000/svg" xmlns:xlink="http://www.w3.org/1999/xlink" x="0px" y="0px"
	 viewBox="0 0 512 512" style="enable-background:new 0 0 512 512; fill:#333" xml:space="preserve">
<g>
	<g>
		<path d="M337.92,89.845C161.28,33.525,0,164.085,0,333.045c0,23.04,2.56,66.56,10.24,92.16c0,5.12,5.12,10.24,10.24,10.24h468.48
			c5.12,0,10.24-5.12,12.8-10.24c5.12-25.6,10.24-69.12,10.24-92.16C512,222.965,442.88,123.125,337.92,89.845z M256,128.245
			c15.36,0,25.6,10.24,25.6,25.6c0,15.36-10.24,25.6-25.6,25.6s-25.6-10.24-25.6-25.6C230.4,138.485,240.64,128.245,256,128.245z
			 M76.8,358.645c-15.36,0-25.6-10.24-25.6-25.6c0-15.36,10.24-25.6,25.6-25.6s25.6,10.24,25.6,25.6
			C102.4,348.405,92.16,358.645,76.8,358.645z M148.48,225.525c-10.24,10.24-25.6,10.24-35.84,0c-10.24-10.24-10.24-28.16-2.56-38.4
			c10.24-10.24,25.6-10.24,35.84,0S156.16,215.285,148.48,225.525z M256,384.245c-28.16,0-53.76-25.6-46.08-51.2
			c7.68-25.6,46.08-102.4,46.08-102.4s38.4,76.8,46.08,102.4C309.76,358.645,284.16,384.245,256,384.245z M401.92,225.525
			c-10.24,10.24-25.6,10.24-35.84,0s-10.24-25.6,0-35.84s25.6-10.24,35.84,0C409.6,197.365,409.6,215.285,401.92,225.525z
			 M435.2,358.645c-15.36,0-25.6-10.24-25.6-25.6c0-15.36,10.24-25.6,25.6-25.6s25.6,10.24,25.6,25.6
			C460.8,348.405,450.56,358.645,435.2,358.645z"/>
	</g>
</g>
</svg>
