<svg height="512pt" viewBox="-16 0 511 512" width="512pt" xmlns="http://www.w3.org/2000/svg"><path d="m132.261719 148.183594h167.375c5.523437 0 10-4.480469 10-10 0-5.523438-4.476563-10-10-10h-167.375c-5.523438 0-10 4.476562-10 10 0 5.519531 4.476562 10 10 10zm0 0"/><path d="m132.261719 220.164062h153.378906c5.523437 0 10-4.476562 10-10 0-5.523437-4.476563-10-10-10h-153.378906c-5.523438 0-10 4.476563-10 10 0 5.523438 4.476562 10 10 10zm0 0"/><path d="m132.261719 282.894531h97.84375c5.523437 0 10-4.476562 10-10 0-5.523437-4.476563-10-10-10h-97.84375c-5.523438 0-10 4.476563-10 10 0 5.523438 4.476562 10 10 10zm0 0"/><path d="m200.484375 325.625h-68.222656c-5.523438 0-10 4.476562-10 10s4.476562 10 10 10h68.222656c5.523437 0 10-4.476562 10-10s-4.476563-10-10-10zm0 0"/><path d="m189.121094 388.355469h-56.859375c-5.523438 0-10 4.476562-10 10 0 5.523437 4.476562 10 10 10h56.859375c5.523437 0 10-4.476563 10-10 0-5.523438-4.476563-10-10-10zm0 0"/><path d="m371.15625 336.171875c-.128906-.046875-.257812-.085937-.382812-.128906-.027344-.007813-.054688-.019531-.082032-.027344-5.703125-2.015625-11.671875-3.046875-17.742187-3.046875-29.328125 0-53.1875 23.855469-53.1875 53.183594s23.859375 53.1875 53.1875 53.1875c6.074219 0 12.039062-1.027344 17.742187-3.042969.027344-.011719.054688-.019531.082032-.027344.125-.046875.253906-.085937.382812-.128906 0-.003906.003906-.003906.007812-.003906 20.921876-7.625 34.976563-27.714844 34.976563-49.984375 0-22.269532-14.054687-42.351563-34.984375-49.980469zm-51.394531 49.976563c0-18.292969 14.886719-33.179688 33.1875-33.179688 1.613281 0 3.210937.121094 4.789062.351562v65.667969c-1.578125.230469-3.175781.351563-4.789062.351563-18.300781 0-33.1875-14.890625-33.1875-33.191406zm57.976562 22.011718v-44.011718c5.273438 5.953124 8.402344 13.730468 8.402344 22.003906 0 8.277344-3.128906 16.054687-8.402344 22.007812zm0 0"/><path d="m461.347656 355.5625h-14.449218c-1.589844-4.890625-3.558594-9.636719-5.890626-14.207031l10.222657-10.222657c3.300781-3.300781 5.113281-7.691406 5.109375-12.355468-.003906-4.664063-1.824219-9.042969-5.109375-12.316406l-18.582031-18.59375c-6.804688-6.800782-17.875-6.800782-24.679688 0l-10.226562 10.226562c-4.578126-2.332031-9.320313-4.300781-14.203126-5.890625v-14.453125c0-5.144531-2.195312-9.804688-5.800781-13.019531v-174.539063c0-19.730468-16.050781-35.78125-35.78125-35.78125h-17.875v-18.632812c0-19.726563-16.050781-35.777344-35.777343-35.777344h-252.027344c-19.726563 0-35.777344 16.050781-35.777344 35.777344v385.839844c0 19.726562 16.050781 35.777343 35.777344 35.777343h17.878906v18.636719c0 19.722656 16.054688 35.769531 35.78125 35.769531h247.300781c.847657.128907 1.707031.199219 2.570313.199219h26.277344c9.625 0 17.449218-7.828125 17.449218-17.449219v-14.449219c4.890625-1.589843 9.636719-3.558593 14.210938-5.890624l10.21875 10.21875c6.808594 6.804687 17.878906 6.808593 24.683594 0l18.582031-18.578126c6.804687-6.804687 6.804687-17.878906 0-24.683593l-10.222657-10.222657c2.332032-4.570312 4.300782-9.316406 5.890626-14.207031h14.449218c9.621094 0 17.449219-7.828125 17.449219-17.449219v-26.277343c.003906-9.621094-7.824219-17.449219-17.449219-17.449219zm-387.1875 120.46875v-260.359375c0-.695313-.070312-1.367187-.207031-2.019531-.929687-4.558594-4.960937-7.988282-9.796875-7.988282-5.519531 0-10 4.480469-10 10v221.730469h-17.878906c-8.699219 0-15.777344-7.078125-15.777344-15.777343v-385.839844c0-8.699219 7.078125-15.777344 15.777344-15.777344h252.027344c8.699218 0 15.777343 7.078125 15.777343 15.777344v18.632812h-214.148437c-19.726563 0-35.777344 16.046875-35.777344 35.773438v45.480468c0 .691407.070312 1.367188.207031 2.019532.929688 4.558594 4.960938 7.984375 9.796875 7.984375 5.523438 0 10-4.476563 10-10v-45.476563c0-8.703125 7.078125-15.78125 15.777344-15.78125h252.023438c8.699218 0 15.777343 7.078125 15.777343 15.78125v170.109375h-17.929687c-9.621094 0-17.449219 7.828125-17.449219 17.449219v14.453125c-4.882813 1.589844-9.628906 3.558594-14.203125 5.890625l-10.226562-10.226562c-6.804688-6.804688-17.875-6.800782-24.683594.003906l-18.566406 18.574218c-3.300782 3.289063-5.121094 7.667969-5.125 12.328126-.003907 4.667968 1.8125 9.058593 5.113281 12.359374l10.222656 10.222657c-2.332031 4.578125-4.300781 9.324219-5.890625 14.203125h-14.449219c-9.621093 0-17.449219 7.828125-17.449219 17.449218v26.28125c0 9.621094 7.828126 17.449219 17.449219 17.449219h14.453125c1.585938 4.882813 3.554688 9.628907 5.890625 14.203125l-10.226562 10.226563c-6.804688 6.804687-6.804688 17.878906 0 24.683593l18.578125 18.578126c3.300781 3.296874 7.683594 5.109374 12.34375 5.109374s9.042968-1.8125 12.339844-5.109374l10.222656-10.222657c4.570312 2.332031 9.320312 4.300781 14.207031 5.890625v11.703125h-232.417969c-8.703125 0-15.78125-7.074219-15.78125-15.769531zm384.640625-79.292969h-19.472656c-4.628906 0-8.65625 3.183594-9.726563 7.6875-1.941406 8.152344-5.148437 15.882813-9.53125 22.980469-2.4375 3.945312-1.839843 9.046875 1.4375 12.324219l13.777344 13.78125-14.976562 14.976562-13.777344-13.777343c-3.277344-3.277344-8.382812-3.875-12.328125-1.4375-7.097656 4.382812-14.828125 7.589843-22.976563 9.527343-4.507812 1.074219-7.6875 5.097657-7.6875 9.730469v19.46875h-21.179687v-19.46875c0-4.632812-3.179687-8.65625-7.6875-9.730469-8.148437-1.9375-15.882813-5.144531-22.976563-9.527343-3.945312-2.4375-9.046874-1.84375-12.328124 1.4375l-13.777344 13.777343-14.980469-14.980469 13.78125-13.777343c3.273437-3.277344 3.871094-8.375 1.4375-12.316407-4.390625-7.128906-7.601563-14.863281-9.53125-22.988281-1.074219-4.503906-5.097656-7.6875-9.730469-7.6875h-19.46875v-21.179687h19.46875c4.632813 0 8.65625-3.179688 9.730469-7.683594 1.933594-8.128906 5.140625-15.859375 9.53125-22.988281 2.433594-3.941407 1.835937-9.042969-1.4375-12.316407l-13.777344-13.773437 14.976563-14.984375 13.777344 13.777344c3.277343 3.277344 8.375 3.875 12.316406 1.441406 7.128906-4.390625 14.863281-7.597656 22.988281-9.535156 4.507813-1.070313 7.6875-5.097656 7.6875-9.726563v-19.46875h21.179687v19.46875c0 4.632813 3.179688 8.65625 7.683594 9.730469 8.128906 1.933594 15.863282 5.140625 22.988282 9.53125 3.941406 2.433594 9.042968 1.835938 12.320312-1.4375l13.777344-13.78125 14.972656 14.984375-13.773438 13.773437c-3.28125 3.277344-3.875 8.382813-1.4375 12.328126 4.382813 7.09375 7.589844 14.824218 9.527344 22.976562 1.074219 4.507812 5.097656 7.6875 9.730469 7.6875h19.472656zm0 0"/><path d="m73.390625 171.839844c-.25-.601563-.5625-1.179688-.921875-1.71875-.359375-.550782-.78125-1.0625-1.238281-1.523438-.460938-.46875-.972657-.878906-1.519531-1.25-.542969-.359375-1.121094-.667968-1.730469-.917968-.601563-.25-1.230469-.441407-1.871094-.570313-1.289063-.261719-2.621094-.261719-3.898437 0-.640626.128906-1.273438.320313-1.882813.570313-.597656.25-1.179687.558593-1.71875.917968-.550781.371094-1.058594.78125-1.519531 1.25-.460938.460938-.878906.972656-1.25 1.523438-.359375.539062-.671875 1.117187-.921875 1.71875-.25.609375-.4375 1.230468-.570313 1.871094-.128906.648437-.1875 1.308593-.1875 1.960937 0 .648437.058594 1.308594.1875 1.949219.132813.640625.332032 1.269531.582032 1.867187.25.601563.550781 1.191407.917968 1.730469.363282.550781.78125 1.0625 1.242188 1.519531.460937.460938.96875.882813 1.519531 1.242188.539063.359375 1.121094.667969 1.71875.917969.609375.25 1.242187.441406 1.882813.570312.636718.128906 1.296874.199219 1.949218.199219 2.628906 0 5.207032-1.070313 7.070313-2.929688.457031-.460937.878906-.96875 1.238281-1.519531.359375-.539062.671875-1.128906.921875-1.730469.25-.601562.4375-1.230469.570313-1.871093.128906-.640626.199218-1.300782.199218-1.949219 0-.648438-.070312-1.308594-.199218-1.957031-.132813-.640626-.320313-1.261719-.570313-1.871094zm0 0"/></svg>