<?xml version="1.0" encoding="iso-8859-1"?>
<svg version="1.1" id="Capa_1" xmlns="http://www.w3.org/2000/svg" xmlns:xlink="http://www.w3.org/1999/xlink" x="0px" y="0px"
	 viewBox="0 0 512 512" style="enable-background:new 0 0 512 512; fill:#555" xml:space="preserve">
<g>
	<g>
		<path d="M256,211c-33.091,0-60,26.909-60,60s26.909,60,60,60s60-26.909,60-60S289.091,211,256,211z"/>
	</g>
</g>
<g>
	<g>
		<path d="M452.816,115.606l-42.422-42.422C401.898,64.688,390.59,60,378.578,60H121c-8.291,0-15,6.709-15,15v422
			c0,8.291,6.709,15,15,15h330c8.291,0,15-6.709,15-15V147.422C466,135.41,461.312,124.102,452.816,115.606z M401.605,416.605
			c-5.859,5.859-15.352,5.859-21.211,0l-72.404-72.404C293.277,354.687,275.406,361,256,361c-49.629,0-90-40.371-90-90
			c0-49.629,40.371-90,90-90c49.629,0,90,40.371,90,90c0,19.406-6.313,37.277-16.798,51.991l72.404,72.404
			C407.465,401.254,407.465,410.746,401.605,416.605z M436,150h-60V90h2.578c3.94,0,7.808,1.597,10.605,4.395l42.422,42.422
			c2.798,2.798,4.395,6.665,4.395,10.605V150z"/>
	</g>
</g>
<g>
	<g>
		<path d="M391,0H61c-8.284,0-15,6.716-15,15v421c0,8.291,6.709,15,15,15h15V75c0-24.853,20.147-45,45-45h285V15
			C406,6.709,399.291,0,391,0z"/>
	</g>
</g>

</svg>
