<?xml version="1.0" encoding="iso-8859-1"?>
<svg version="1.1" id="Capa_1" xmlns="http://www.w3.org/2000/svg" xmlns:xlink="http://www.w3.org/1999/xlink" x="0px" y="0px"
	 viewBox="0 0 426.667 426.667" style="enable-background:new 0 0 426.667 426.667; fill:#555" xml:space="preserve">
<g>
	<g>
		<g>
			<path d="M42.667,85.333H0V384c0,23.573,19.093,42.667,42.667,42.667h298.667V384H42.667V85.333z"/>
			<path d="M384,0H128c-23.573,0-42.667,19.093-42.667,42.667v256c0,23.573,19.093,42.667,42.667,42.667h256
				c23.573,0,42.667-19.093,42.667-42.667v-256C426.667,19.093,407.573,0,384,0z M362.667,192h-85.333v85.333h-42.667V192h-85.333
				v-42.667h85.333V64h42.667v85.333h85.333V192z"/>
		</g>
	</g>
</g>

</svg>
