<svg id="bold" enable-background="new 0 0 24 24" fill="#555" height="512" viewBox="0 0 24 24" width="512" xmlns="http://www.w3.org/2000/svg"><path d="m21.25 2c.414 0 .75.336.75.75v18.5c0 .414-.336.75-.75.75h-18.5c-.414 0-.75-.336-.75-.75v-18.5c0-.414.336-.75.75-.75zm0-2h-18.5c-1.517 0-2.75 1.233-2.75 2.75v18.5c0 1.517 1.233 2.75 2.75 2.75h18.5c1.517 0 2.75-1.233 2.75-2.75v-18.5c0-1.517-1.233-2.75-2.75-2.75z"/><path d="m18.713 16.09-3.5 2.75c-.487.386-1.213.037-1.213-.59v-1.75h-8c-.553 0-1-.448-1-1s.447-1 1-1h8v-1.75c0-.628.728-.976 1.213-.59l3.5 2.75c.182.142.287.36.287.59s-.105.448-.287.59z"/><path d="m18 9.5h-8v1.75c0 .627-.726.976-1.213.59l-3.5-2.75c-.182-.142-.287-.36-.287-.59s.105-.448.287-.59l3.5-2.75c.485-.386 1.213-.038 1.213.59v1.75h8c.553 0 1 .448 1 1s-.447 1-1 1z"/></svg>